REM DIRINDEX 1\2\4,1\2\5,1\3\6,1\3\7,1\3\8
REM DIRNAME folder01,folder02,folder03,folder04,folder05,folder06,folder07,folder08
TITLE ""
FILE "LV1_004_WORDS.mp3" MP3
  TRACK 01 AUDIO
    TITLE "0:"
    INDEX 01 00:00:00
  TRACK 02 AUDIO
    TITLE "6:cjc094_0153"
    INDEX 01 00:00:03
  TRACK 03 AUDIO
    TITLE "0:"
    INDEX 01 00:01:26
  TRACK 04 AUDIO
    TITLE "7:cjc094_0154"
    INDEX 01 00:02:10
  TRACK 05 AUDIO
    TITLE "0:"
    INDEX 01 00:02:71
  TRACK 06 AUDIO
    TITLE "8:cjc094_0155"
    INDEX 01 00:03:23
  TRACK 07 AUDIO
    TITLE "0:"
    INDEX 01 00:06:14
  TRACK 08 AUDIO
    TITLE "7:cjc094_0156"
    INDEX 01 00:06:63
  TRACK 09 AUDIO
    TITLE "0:"
    INDEX 01 00:07:56
  TRACK 10 AUDIO
    TITLE "8:cjc094_0157"
    INDEX 01 00:08:01
  TRACK 11 AUDIO
    TITLE "0:"
    INDEX 01 00:10:35
  TRACK 12 AUDIO
    TITLE "7:cjc094_0158"
    INDEX 01 00:11:15
  TRACK 13 AUDIO
    TITLE "0:"
    INDEX 01 00:12:07
  TRACK 14 AUDIO
    TITLE "8:cjc094_0159"
    INDEX 01 00:12:24
  TRACK 15 AUDIO
    TITLE "0:"
    INDEX 01 00:13:12
  TRACK 16 AUDIO
    TITLE "7:cjc094_0160"
    INDEX 01 00:13:63
  TRACK 17 AUDIO
    TITLE "0:"
    INDEX 01 00:15:03
  TRACK 18 AUDIO
    TITLE "8:cjc094_0161"
    INDEX 01 00:15:23
  TRACK 19 AUDIO
    TITLE "0:"
    INDEX 01 00:16:48
  TRACK 20 AUDIO
    TITLE "7:cjc094_0162"
    INDEX 01 00:17:25
  TRACK 21 AUDIO
    TITLE "0:"
    INDEX 01 00:18:39
  TRACK 22 AUDIO
    TITLE "8:cjc094_0163"
    INDEX 01 00:18:52
  TRACK 23 AUDIO
    TITLE "0:"
    INDEX 01 00:20:02
  TRACK 24 AUDIO
    TITLE "7:cjc094_0164"
    INDEX 01 00:20:57
  TRACK 25 AUDIO
    TITLE "0:"
    INDEX 01 00:21:53
  TRACK 26 AUDIO
    TITLE "8:cjc094_0165"
    INDEX 01 00:21:70
  TRACK 27 AUDIO
    TITLE "0:"
    INDEX 01 00:25:50
  TRACK 28 AUDIO
    TITLE "7:cjc094_0166"
    INDEX 01 00:26:24
  TRACK 29 AUDIO
    TITLE "0:"
    INDEX 01 00:27:41
  TRACK 30 AUDIO
    TITLE "8:cjc094_0167"
    INDEX 01 00:27:51
  TRACK 31 AUDIO
    TITLE "0:"
    INDEX 01 00:29:52
  TRACK 32 AUDIO
    TITLE "7:cjc094_0168"
    INDEX 01 00:30:28
  TRACK 33 AUDIO
    TITLE "0:"
    INDEX 01 00:31:24
  TRACK 34 AUDIO
    TITLE "8:cjc094_0169"
    INDEX 01 00:31:39
  TRACK 35 AUDIO
    TITLE "0:"
    INDEX 01 00:32:39
  TRACK 36 AUDIO
    TITLE "7:cjc094_0170"
    INDEX 01 00:33:22
  TRACK 37 AUDIO
    TITLE "0:"
    INDEX 01 00:34:24
  TRACK 38 AUDIO
    TITLE "8:cjc094_0171"
    INDEX 01 00:34:45
  TRACK 39 AUDIO
    TITLE "0:"
    INDEX 01 00:36:54
  TRACK 40 AUDIO
    TITLE "7:cjc094_0172"
    INDEX 01 00:37:38
  TRACK 41 AUDIO
    TITLE "0:"
    INDEX 01 00:38:41
  TRACK 42 AUDIO
    TITLE "8:cjc094_0173"
    INDEX 01 00:38:55
  TRACK 43 AUDIO
    TITLE "0:"
    INDEX 01 00:39:54
  TRACK 44 AUDIO
    TITLE "7:cjc094_0174"
    INDEX 01 00:40:30
  TRACK 45 AUDIO
    TITLE "0:"
    INDEX 01 00:41:36
  TRACK 46 AUDIO
    TITLE "8:cjc094_0175"
    INDEX 01 00:41:53
  TRACK 47 AUDIO
    TITLE "0:"
    INDEX 01 00:42:63
  TRACK 48 AUDIO
    TITLE "7:cjc094_0176"
    INDEX 01 00:43:40
  TRACK 49 AUDIO
    TITLE "0:"
    INDEX 01 00:44:38
  TRACK 50 AUDIO
    TITLE "8:cjc094_0177"
    INDEX 01 00:44:61
  TRACK 51 AUDIO
    TITLE "0:"
    INDEX 01 00:45:57
  TRACK 52 AUDIO
    TITLE "7:cjc094_0178"
    INDEX 01 00:46:27
  TRACK 53 AUDIO
    TITLE "0:"
    INDEX 01 00:47:38
  TRACK 54 AUDIO
    TITLE "8:cjc094_0179"
    INDEX 01 00:47:58
  TRACK 55 AUDIO
    TITLE "0:"
    INDEX 01 00:51:40
  TRACK 56 AUDIO
    TITLE "7:cjc094_0180"
    INDEX 01 00:52:10
  TRACK 57 AUDIO
    TITLE "0:"
    INDEX 01 00:53:00
  TRACK 58 AUDIO
    TITLE "8:cjc094_0181"
    INDEX 01 00:53:19
  TRACK 59 AUDIO
    TITLE "0:"
    INDEX 01 00:55:20
  TRACK 60 AUDIO
    TITLE "7:cjc094_0182"
    INDEX 01 00:55:65
  TRACK 61 AUDIO
    TITLE "0:"
    INDEX 01 00:56:57
  TRACK 62 AUDIO
    TITLE "8:cjc094_0183"
    INDEX 01 00:57:03
  TRACK 63 AUDIO
    TITLE "0:"
    INDEX 01 00:59:51
  TRACK 64 AUDIO
    TITLE "7:cjc094_0184"
    INDEX 01 01:00:19
  TRACK 65 AUDIO
    TITLE "0:"
    INDEX 01 01:01:09
  TRACK 66 AUDIO
    TITLE "8:cjc094_0185"
    INDEX 01 01:01:34
  TRACK 67 AUDIO
    TITLE "0:"
    INDEX 01 01:03:49
